<svg
   xmlns:dc="http://purl.org/dc/elements/1.1/"
   xmlns:cc="http://creativecommons.org/ns#"
   xmlns:rdf="http://www.w3.org/1999/02/22-rdf-syntax-ns#"
   xmlns:svg="http://www.w3.org/2000/svg"
   xmlns="http://www.w3.org/2000/svg"
   xmlns:sodipodi="http://sodipodi.sourceforge.net/DTD/sodipodi-0.dtd"
   xmlns:inkscape="http://www.inkscape.org/namespaces/inkscape"
   class="states-svg"
   viewBox="0 0 959 593"
   version="1.1"
   xml:space="preserve"
   style="fill-rule:evenodd;clip-rule:evenodd;"
   id="svg943"
   sodipodi:docname="United_States_Political_Control_map.svg"
   inkscape:version="0.92.3 (2405546, 2018-03-11)"><metadata
   id="metadata949"><rdf:RDF><cc:Work
       rdf:about=""><dc:format>image/svg+xml</dc:format><dc:type
         rdf:resource="http://purl.org/dc/dcmitype/StillImage" /></cc:Work></rdf:RDF></metadata><defs
   id="defs947" /><sodipodi:namedview
   pagecolor="#ffffff"
   bordercolor="#666666"
   borderopacity="1"
   objecttolerance="10"
   gridtolerance="10"
   guidetolerance="10"
   inkscape:pageopacity="0"
   inkscape:pageshadow="2"
   inkscape:window-width="3840"
   inkscape:window-height="1973"
   id="namedview945"
   showgrid="false"
   inkscape:zoom="2.7166948"
   inkscape:cx="479.5"
   inkscape:cy="296.5"
   inkscape:window-x="-18"
   inkscape:window-y="-18"
   inkscape:window-maximized="1"
   inkscape:current-layer="svg943" />
    <path
   id="HI"
   d="M233.088,519.309L235.027,515.753L237.291,515.43L237.614,516.238L235.512,519.309L233.088,519.309ZM243.272,515.591L249.415,518.178L251.517,517.855L253.134,513.975L252.487,510.58L248.284,510.095L244.242,511.873L243.272,515.591ZM273.988,525.614L277.706,531.111L280.131,530.787L281.263,530.302L282.717,531.596L286.436,531.434L287.406,529.979L284.496,528.201L282.556,524.483L280.454,520.926L274.634,523.836L273.988,525.614ZM294.195,534.506L295.489,532.566L300.177,533.536L300.824,533.051L306.967,533.697L306.643,534.991L304.057,536.446L299.692,536.122L294.195,534.506ZM299.53,539.679L301.47,543.559L304.542,542.427L304.865,540.81L303.248,538.709L299.53,538.386L299.53,539.679ZM306.482,538.547L308.745,535.637L313.433,538.062L317.798,539.194L322.163,541.942L322.163,543.882L318.606,545.66L313.756,546.63L311.332,545.175L306.482,538.547ZM323.133,554.067L324.749,552.773L328.144,554.39L335.742,557.947L339.137,560.048L340.754,562.473L342.694,566.838L346.735,569.424L346.412,570.718L342.532,573.951L338.329,575.406L336.874,574.759L333.802,576.538L331.378,579.771L329.114,582.681L327.336,582.519L323.779,579.932L323.456,575.406L324.103,572.981L322.486,567.323L320.385,565.545L320.223,562.958L322.486,561.988L324.588,558.916L325.073,557.947L323.456,556.168L323.133,554.067Z"
   class="state-svg" />
    <path
   id="AK"
   d="M158.077,453.675L157.753,539.032L159.37,540.002L162.442,540.164L163.897,539.032L166.483,539.032L166.645,541.942L173.596,548.732L174.081,551.318L177.476,549.378L178.123,549.217L178.446,546.145L179.901,544.529L181.033,544.367L182.973,542.912L186.044,545.014L186.691,547.924L188.631,549.055L189.762,551.48L193.642,553.258L197.037,559.24L199.785,563.12L202.049,565.868L203.504,569.586L208.515,571.364L213.688,573.466L214.658,577.831L215.143,580.902L214.173,584.297L212.395,586.561L210.778,585.752L209.323,582.681L206.575,581.226L204.797,580.094L203.988,580.902L205.443,583.651L205.605,587.369L204.473,587.854L202.534,585.914L200.432,584.621L200.917,586.237L202.21,588.016L201.402,588.824C201.402,588.824 200.594,588.5 200.109,587.854C199.624,587.207 198.007,584.459 198.007,584.459L197.037,582.196C197.037,582.196 196.714,583.489 196.067,583.166C195.42,582.842 194.774,581.711 194.774,581.711L196.552,579.771L195.097,578.316L195.097,573.304L194.289,573.304L193.481,576.699L192.349,577.184L191.379,573.466L190.732,569.748L189.924,569.263L190.247,574.921L190.247,576.053L188.792,574.759L185.236,568.778L183.134,568.293L182.488,564.575L180.871,561.665L179.254,560.533L179.254,558.27L181.356,556.977L180.871,556.653L178.284,557.3L174.889,554.875L172.303,551.965L167.453,549.378L163.412,546.792L164.705,543.559L164.705,541.942L162.927,543.559L160.017,544.69L156.298,543.559L150.64,541.134L145.144,541.134L144.497,541.619L138.031,537.739L135.929,537.416L133.181,531.596L129.624,531.919L126.068,533.374L126.553,537.901L127.684,534.991L128.654,535.314L127.199,539.679L130.433,536.931L131.079,538.547L127.199,542.912L125.906,542.589L125.421,540.649L124.128,539.84L122.835,540.972L120.086,539.194L117.015,541.295L115.236,543.397L111.842,545.499L107.153,545.337L106.668,543.235L110.387,542.589L110.387,541.295L108.123,540.649L109.093,538.224L111.357,534.344L111.357,532.566L111.518,531.757L115.883,529.494L116.853,530.787L119.601,530.787L118.308,528.201L114.59,527.878L109.578,530.626L107.153,534.021L105.375,536.607L104.244,538.87L100.04,540.325L96.969,542.912L96.645,544.529L98.909,545.499L99.717,547.6L96.969,550.833L90.502,555.037L82.743,559.24L80.641,560.371L75.306,561.503L69.971,563.766L71.75,565.06L70.295,566.515L69.81,567.646L67.061,566.676L63.828,566.838L63.02,569.101L62.05,569.101L62.373,566.676L58.817,567.97L55.907,568.939L52.512,567.646L49.602,569.586L46.369,569.586L44.267,570.879L42.651,571.688L40.549,571.364L37.962,570.233L35.699,570.879L34.729,571.849L33.113,570.718L33.113,568.778L36.184,567.485L42.489,568.131L46.854,566.515L48.955,564.413L51.865,563.766L53.644,562.958L56.392,563.12L58.008,564.413L58.978,564.09L61.242,561.341L64.313,560.371L67.708,559.725L69.001,559.401L69.648,559.886L70.456,559.886L71.75,556.168L75.791,554.713L77.731,550.995L79.994,546.469L81.611,545.014L81.934,542.427L80.318,543.72L76.923,544.367L76.276,541.942L74.983,541.619L74.013,542.589L73.851,545.499L72.396,545.337L70.941,539.517L69.648,540.81L68.516,540.325L68.193,538.386L64.152,538.547L62.05,539.679L59.463,539.355L60.918,537.901L61.403,535.314L60.757,533.374L62.212,532.404L63.505,532.242L62.858,530.464L62.858,526.099L61.888,525.129L61.08,526.584L54.937,526.584L53.482,525.291L52.835,521.411L50.734,517.855L50.734,516.885L52.835,516.076L52.997,513.975L54.129,512.843L53.32,512.358L52.027,512.843L50.895,510.095L51.865,505.083L56.392,501.85L58.978,500.233L60.918,496.515L63.667,495.222L66.253,496.354L66.576,498.779L69.001,498.455L72.235,496.03L73.851,496.677L74.821,497.324L76.438,497.324L78.701,496.03L79.509,491.665C79.509,491.665 79.833,488.756 80.479,488.271C81.126,487.786 81.449,487.301 81.449,487.301L80.318,485.361L77.731,486.169L74.498,486.977L72.558,486.492L69.001,484.714L63.99,484.552L60.433,480.834L60.918,476.954L61.565,474.529L59.463,472.751L57.523,469.033L58.008,468.225L64.798,467.74L66.9,467.74L67.87,468.71L68.516,468.71L68.355,467.093L72.235,466.446L74.821,466.77L76.276,467.901L74.821,470.003L74.336,471.458L77.084,473.074L82.096,474.853L83.874,473.883L81.611,469.518L80.641,466.285L81.611,465.476L78.216,463.536L77.731,462.405L78.216,460.788L77.408,456.908L74.498,452.22L72.073,448.017L74.983,446.077L78.216,446.077L79.994,446.724L84.198,446.562L87.916,443.005L89.047,439.934L92.766,437.509L94.382,438.479L97.13,437.832L100.849,435.731L101.98,435.569L102.95,436.377L107.477,436.216L110.225,433.144L111.357,433.144L114.913,435.569L116.853,437.671L116.368,438.802L117.015,439.934L118.631,438.317L122.511,438.641L122.835,442.359L124.775,443.814L131.888,444.46L138.192,448.664L139.647,447.694L144.82,450.28L146.922,449.634L148.862,448.825L153.712,450.765L158.077,453.675ZM42.974,482.612L45.076,487.947L44.914,488.917L42.004,488.594L40.226,484.552L38.447,483.097L36.022,483.097L35.861,480.511L37.639,478.086L38.771,480.511L40.226,481.966L42.974,482.612ZM40.387,516.076L44.106,516.885L47.824,517.855L48.632,518.824L47.015,522.543L43.944,522.381L40.549,518.824L40.387,516.076ZM19.695,502.012L20.826,504.598L21.958,506.215L20.826,507.023L18.725,503.952L18.725,502.012L19.695,502.012ZM5.953,575.083L9.348,572.819L12.743,571.849L15.33,572.173L15.815,573.789L17.755,574.274L19.695,572.334L19.371,570.718L22.12,570.071L25.03,572.658L23.898,574.436L19.533,575.568L16.785,575.083L13.067,573.951L8.702,575.406L7.085,575.729L5.953,575.083ZM54.937,570.556L56.553,572.496L58.655,570.879L57.2,569.586L54.937,570.556ZM57.847,573.628L58.978,571.364L61.08,571.688L60.272,573.628L57.847,573.628ZM81.449,571.688L82.904,573.466L83.874,572.334L83.066,570.394L81.449,571.688ZM90.179,559.24L91.311,565.06L94.221,565.868L99.232,562.958L103.597,560.371L101.98,557.947L102.465,555.522L100.364,556.815L97.454,556.007L99.07,554.875L101.01,555.683L104.89,553.905L105.375,552.45L102.95,551.642L103.759,549.702L101.01,551.642L96.322,555.198L91.472,558.108L90.179,559.24ZM132.534,539.355L134.959,537.901L133.989,536.122L132.211,537.092L132.534,539.355Z"
   class="state-svg" />
    <path
   id="FL"
   d="M755.397,445.507L757.663,452.825L761.393,462.568L766.727,471.944L770.446,478.249L775.295,483.745L779.337,487.463L780.954,490.373L779.822,491.667L779.014,492.96L781.924,500.396L784.833,503.306L787.42,508.641L790.977,514.461L795.503,522.705L796.796,530.303L797.281,542.266L797.928,544.044L797.605,547.439L795.18,548.733L795.503,550.673L794.856,552.613L795.18,555.037L795.665,556.977L792.916,560.211L789.845,561.665L785.965,561.827L784.51,563.444L782.085,564.414L780.792,563.929L779.66,562.959L779.337,560.049L778.529,556.654L775.134,551.481L771.577,549.218L767.697,548.894L766.889,550.188L763.818,545.823L763.171,542.266L760.584,538.225L758.806,537.093L757.189,539.195L755.411,538.871L753.31,533.86L750.4,529.98L747.49,524.645L744.903,521.574L741.347,517.856L743.448,515.431L746.682,509.934L746.52,508.318L741.993,507.348L740.377,507.994L740.7,508.641L743.287,509.611L741.832,514.137L741.023,514.622L739.245,510.581L737.952,505.731L737.629,502.983L739.083,498.295L739.083,488.757L736.012,485.038L734.719,481.967L729.546,480.674L727.606,480.027L725.989,477.44L722.594,475.824L721.463,472.429L718.714,471.459L716.289,467.741L712.086,466.286L709.176,464.831L706.59,464.831L702.548,465.639L702.387,467.579L703.195,468.549L702.71,469.681L699.638,469.519L695.92,473.076L692.364,475.015L688.484,475.015L685.251,476.309L684.927,473.561L683.311,471.621L680.401,470.489L678.784,469.034L670.701,465.154L663.103,463.376L658.738,464.023L652.757,464.508L646.775,466.609L643.296,467.222L643.058,459.172L640.472,457.232L638.693,455.454L639.017,452.383L649.201,451.089L674.744,448.179L681.533,447.533L686.969,447.813L689.556,451.693L691.011,453.148L699.109,453.663L709.929,453.016L731.441,451.723L736.887,451.049L741.464,451.077L741.626,453.986L745.45,454.795L745.773,449.988L744.157,445.461L745.111,444.729L750.224,445.183L755.397,445.507ZM767.943,577.912L770.368,577.265L771.661,577.023L773.116,574.679L775.46,573.062L776.753,573.547L778.451,573.87L778.855,574.921L775.379,576.134L771.176,577.589L768.832,578.801L767.943,577.912ZM781.441,572.9L782.654,573.951L785.402,571.85L790.737,567.646L794.455,563.766L796.961,557.138L797.931,555.441L798.092,552.046L797.365,552.531L796.395,555.36L794.94,559.967L791.707,565.221L787.342,569.425L783.947,571.365L781.441,572.9Z"
   class="state-svg" />
    <path
   id="SC"
   d="M761.231,412.938L759.454,413.907L756.867,412.614L756.221,410.512L754.927,406.956L752.664,404.854L750.078,404.208L748.461,399.358L745.713,393.376L741.51,391.437L739.408,389.497L738.115,386.91L736.013,384.97L733.75,383.677L731.487,380.767L728.415,378.504L723.889,376.725L723.404,375.27L720.979,372.361L720.494,370.906L717.099,365.732L713.704,365.894L709.662,363.469L708.369,362.176L708.046,360.398L708.854,358.458L711.117,357.488L710.794,355.386L716.937,352.8L725.99,348.273L733.265,347.465L749.754,346.98L752.018,348.92L753.634,352.153L757.999,351.668L770.609,350.213L773.518,351.021L786.128,358.619L796.236,366.741L790.815,372.199L788.228,378.343L787.743,384.647L786.127,385.456L784.995,388.204L782.57,388.85L780.469,392.407L777.72,395.155L775.457,398.55L773.84,399.358L770.284,402.753L767.374,402.915L768.344,406.148L763.333,411.645L761.231,412.938Z"
   class="state-svg" />
    <path
   id="GA"
   d="M689.616,357.973L684.767,358.781L676.36,359.913L667.792,360.802L667.792,362.984L667.954,365.086L668.601,368.481L671.995,376.402L674.42,386.263L675.875,392.406L677.492,397.256L678.947,404.208L681.048,410.512L683.635,413.907L684.12,417.302L686.06,418.111L686.222,420.212L684.443,425.062L683.958,428.295L683.797,430.235L685.413,434.6L685.737,439.935L684.928,442.36L685.575,443.168L687.03,443.976L687.677,447.371L690.263,451.251L691.718,452.706L699.639,452.868L710.459,452.221L731.972,450.928L737.417,450.253L741.995,450.281L742.156,453.191L744.743,453.999L745.066,449.634L743.449,445.108L744.581,443.491L750.401,444.3L755.378,444.617L754.603,438.319L756.866,428.296L758.321,424.092L757.836,421.506L761.171,415.262L760.66,413.91L758.747,414.614L756.16,413.321L755.514,411.22L754.22,407.663L751.957,405.561L749.37,404.915L747.754,400.065L744.829,393.73L740.626,391.79L738.524,389.85L737.231,387.264L735.129,385.324L732.866,384.03L730.603,381.12L727.531,378.857L723.005,377.079L722.52,375.624L720.095,372.714L719.61,371.259L716.215,366.351L712.82,366.513L708.69,363.469L707.397,362.176L707.074,360.398L707.882,358.458L710.233,357.223L709.1,356L709.177,355.709L703.358,356.679L696.406,357.488L689.616,357.973Z"
   class="state-svg" />
    <path
   id="AL"
   d="M625.598,466.771L623.982,451.574L621.234,432.822L621.396,418.757L622.204,387.718L622.042,371.067L622.207,364.648L629.964,364.277L657.769,361.691L666.692,361.029L666.544,363.211L666.706,365.313L667.352,368.708L670.747,376.629L673.172,386.49L674.627,392.633L676.244,397.483L677.699,404.435L679.8,410.739L682.387,414.134L682.872,417.529L684.812,418.337L684.973,420.439L683.195,425.289L682.71,428.522L682.548,430.462L684.165,434.827L684.488,440.162L683.68,442.587L684.327,443.395L685.782,444.203L686.817,446.738L680.512,446.738L673.722,447.385L648.18,450.295L637.768,451.702L637.672,455.454L639.45,457.232L642.037,459.172L642.618,467.108L637.076,469.681L634.328,469.357L637.076,467.417L637.076,466.447L634.004,460.466L631.741,459.819L630.286,464.184L628.993,466.932L628.346,466.771L625.598,466.771Z"
   class="state-svg" />
    <path
   id="NC"
   d="M832.107,298.472L833.817,303.17L837.373,309.637L839.798,312.062L840.445,314.325L838.02,314.487L838.828,315.133L838.505,319.336L835.918,320.63L835.271,322.731L833.978,325.641L830.26,327.258L827.835,326.934L826.38,326.773L824.764,325.48L825.087,326.773L825.087,327.743L827.027,327.743L827.835,329.036L825.895,335.341L830.098,335.341L830.745,336.957L833.008,334.694L834.302,334.209L832.362,337.766L829.29,342.616L827.997,342.616L826.865,342.131L824.117,342.777L818.944,345.202L812.477,350.537L809.082,355.225L807.143,361.691L806.658,364.116L801.969,364.601L796.516,365.938L786.57,357.736L773.96,350.137L771.05,349.329L758.441,350.784L754.164,351.534L752.548,348.301L749.577,346.184L733.088,346.669L725.813,347.478L716.76,352.004L710.617,354.591L709.001,354.914L703.181,355.884L696.229,356.692L689.44,357.177L689.94,353.123L691.718,351.668L694.466,351.021L695.113,347.303L699.316,344.555L703.196,343.1L707.399,339.543L711.764,337.442L712.411,334.37L716.29,330.49L716.937,330.329C716.937,330.329 716.937,331.46 717.745,331.46C718.554,331.46 719.685,331.784 719.685,331.784L721.949,328.227L724.05,327.581L726.313,327.904L727.93,324.347L730.84,321.761L731.325,319.659L731.325,315.698L735.851,316.426L742.988,315.133L758.807,313.193L775.943,310.606L795.865,306.606L815.598,302.441L826.963,299.644L832.107,298.472ZM836.002,331.46L838.589,328.954L841.741,326.367L843.277,325.721L843.438,323.7L842.792,317.557L841.337,315.213L840.69,313.354L841.418,313.111L844.166,318.608L844.57,323.053L844.408,326.448L841.013,327.984L838.184,330.409L837.053,331.621L836.002,331.46Z"
   class="state-svg" />
    <path
   id="TN"
   d="M697.053,320.629L645.16,325.641L629.4,327.419L624.779,327.932L620.911,327.904L620.911,331.784L612.504,332.269L605.553,332.915L594.457,332.968L594.192,338.804L592.054,345.079L591.059,348.095L589.71,352.476L589.387,355.063L585.345,357.326L586.8,360.883L585.83,365.247L584.862,366.037L592.118,365.843L616.205,363.903L621.54,363.741L629.623,363.256L657.429,360.67L667.6,359.861L676.02,358.891L684.426,357.76L689.276,356.951L689.145,352.442L690.924,350.987L693.672,350.34L694.319,346.622L698.522,343.874L702.402,342.419L706.605,338.863L710.97,336.761L711.843,333.236L716.177,329.356L716.824,329.194C716.824,329.194 716.824,330.326 717.632,330.326C718.44,330.326 719.572,330.649 719.572,330.649L721.835,327.092L723.937,326.446L726.2,326.769L727.817,323.213L729.932,320.966L730.531,320L730.707,316.067L729.223,315.779L726.798,317.719L718.877,317.881L706.882,319.782L697.053,320.629Z"
   class="state-svg" />
    <path
   id="RI"
   d="M874.07,179.823L873.587,175.619L872.779,171.254L871.081,165.354L876.82,163.818L878.437,164.949L881.832,169.314L884.741,173.761L881.83,175.297L880.536,175.135L879.405,176.914L876.98,178.853L874.07,179.823Z"
   class="state-svg" />
    <path
   id="CT"
   d="M873.193,180.05L872.566,175.846L871.757,171.481L870.141,165.5L865.989,166.404L844.165,171.173L844.811,174.487L846.266,181.762L846.266,189.845L845.135,192.108L846.967,194.218L851.923,190.816L855.479,187.583L857.419,185.482L858.227,186.128L860.975,184.673L866.149,183.542L873.193,180.05Z"
   class="state-svg" />
    <path
   id="MA"
   d="M899.977,173.851L902.149,173.165L902.606,171.451L903.635,171.565L904.664,173.851L903.406,174.308L899.52,174.423L899.977,173.851ZM890.604,174.651L892.89,172.022L894.49,172.022L896.319,173.508L893.919,174.537L891.747,175.566L890.604,174.651ZM855.804,152.663L873.264,148.46L875.527,147.813L877.629,144.58L881.365,142.917L884.255,147.33L881.83,152.503L881.506,153.958L883.446,156.544L884.578,155.736L886.356,155.736L888.619,158.323L892.499,164.304L896.056,164.789L898.319,163.819L900.097,162.041L899.289,159.293L897.187,157.676L895.732,158.484L894.763,157.191L895.247,156.706L897.349,156.544L899.127,157.353L901.067,159.778L902.037,162.687L902.361,165.112L898.157,166.567L894.278,168.507L890.398,173.034L888.458,174.489L888.458,173.519L890.883,172.064L891.368,170.285L890.559,167.214L887.649,168.669L886.841,170.124L887.326,172.387L885.26,173.387L882.513,168.86L879.118,164.496L877.047,162.683L870.514,164.559L865.422,165.61L843.597,170.379L843.195,165.434L843.841,154.846L849.015,153.957L855.804,152.663Z"
   class="state-svg" />
    <path
   id="ME"
   d="M923.215,77.331L925.155,79.432L927.418,83.15L927.418,85.09L925.316,89.779L923.376,90.425L919.982,93.497L915.132,98.993C915.132,98.993 914.485,98.993 913.838,98.993C913.192,98.993 912.868,96.892 912.868,96.892L911.09,97.053L910.12,98.508L907.695,99.963L906.725,101.418L908.342,102.873L907.857,103.52L907.372,106.268L905.432,106.106L905.432,104.49L905.109,103.196L903.654,103.52L901.876,100.287L899.774,101.58L901.067,103.035L901.391,104.166L900.582,105.46L900.906,108.531L901.067,110.148L899.451,112.734L896.541,113.219L896.217,116.129L890.883,119.201L889.589,119.686L887.973,118.231L884.901,121.787L885.871,125.021L884.416,126.314L884.255,130.679L883.131,136.938L880.669,135.782L880.184,132.711L876.304,131.579L875.981,128.831L868.706,105.39L864.508,91.75L865.928,91.632L867.442,92.042L867.442,89.455L868.25,83.959L870.837,79.271L872.292,75.229L870.352,72.804L870.352,66.823L871.16,65.853L871.968,63.105L871.807,61.65L871.645,56.8L873.423,51.95L876.333,43.059L878.435,38.856L879.728,38.856L881.021,39.017L881.021,40.149L882.315,42.412L885.063,43.059L885.871,42.25L885.871,41.28L889.913,38.371L891.691,36.592L893.146,36.754L899.127,39.179L901.067,40.149L910.12,70.056L916.102,70.056L916.91,71.996L917.072,76.846L919.982,79.109L920.79,79.109L920.952,78.624L920.467,77.492L923.215,77.331ZM902.283,107.478L903.819,105.942L905.193,106.993L905.759,109.418L904.061,110.307L902.283,107.478ZM908.992,101.578L910.77,103.437C910.77,103.437 912.064,103.518 912.064,103.194C912.064,102.871 912.306,101.173 912.306,101.173L913.195,100.365L912.387,98.587L910.366,99.314L908.992,101.578Z"
   class="state-svg" />
    <path
   id="NH"
   d="M880.799,142.425L881.668,141.348L882.758,138.057L880.215,137.144L879.73,134.072L875.85,132.941L875.527,130.192L868.252,106.752L863.651,92.209L862.754,92.203L862.107,93.82L861.46,93.335L860.491,92.365L859.036,94.305L858.987,99.337L859.299,105.004L861.239,107.753L861.239,111.794L857.52,116.857L854.934,117.989L854.934,119.12L856.066,120.898L856.066,129.466L855.257,138.681L855.096,143.531L856.066,144.824L855.904,149.351L855.419,151.129L856.874,152.015L873.264,147.325L875.527,146.679L877.061,144.126L880.799,142.425Z"
   class="state-svg" />
    <path
   id="VT"
   d="M844.344,153.726L843.535,148.068L841.145,138.097L840.498,137.773L837.588,136.48L838.396,133.57L837.588,131.469L834.888,126.829L835.858,122.949L835.05,117.776L832.625,111.309L831.819,106.387L858.067,99.639L858.391,105.458L860.331,108.206L860.331,112.248L856.613,116.29L854.026,117.421L854.026,118.553L855.158,120.331L855.158,128.899L854.349,138.114L854.188,142.964L855.158,144.257L854.996,148.783L854.511,150.562L855.172,152.128L848.22,153.503L844.344,153.726Z"
   class="state-svg" />
    <path
   id="NY"
   d="M828.614,189.422L827.483,188.452L824.896,188.291L822.633,186.351L821.002,180.222L817.544,180.312L815.1,177.604L795.715,181.986L752.713,190.716L745.183,191.944L744.445,185.475L745.873,184.35L747.167,183.218L748.136,181.602L749.915,180.47L751.855,178.692L752.34,177.075L754.441,174.327L755.573,173.357L755.411,172.387L754.118,169.316L752.34,169.154L750.4,163.011L753.31,161.232L757.674,159.778L761.716,158.484L764.949,157.999L771.254,157.838L773.194,159.131L774.81,159.293L776.912,157.999L779.499,156.868L784.672,156.383L786.773,154.604L788.552,151.371L790.168,149.431L792.27,149.431L794.21,148.3L794.371,146.036L792.916,143.935L792.593,142.48L793.725,140.378L793.725,138.923L791.946,138.923L790.168,138.115L789.36,136.983L789.198,134.397L795.018,128.9L795.665,128.092L797.12,125.182L800.029,120.656L802.778,116.938L804.879,114.513L807.294,112.687L810.376,111.441L815.872,110.148L819.105,110.309L823.632,108.855L831.197,106.783L831.717,111.763L834.142,118.229L834.95,123.403L833.98,127.282L836.567,131.809L837.375,133.911L836.567,136.82L839.477,138.114L840.123,138.437L843.195,149.43L842.659,154.49L842.174,165.321L842.982,170.817L843.79,174.374L845.245,181.649L845.245,189.732L844.113,191.995L845.953,193.988L846.749,195.666L844.809,197.444L845.133,198.738L846.426,198.414L847.881,197.121L850.144,194.535L851.276,193.888L852.892,194.535L855.156,194.696L863.077,190.816L865.987,188.068L867.28,186.613L871.483,188.23L868.089,191.786L864.209,194.696L857.096,200.031L854.509,201.001L848.689,202.941L844.648,204.073L843.473,203.54L843.229,199.851L843.714,197.103L843.552,195.001L840.739,193.302L836.212,192.332L832.332,191.201L828.614,189.422Z"
   class="state-svg" />
    <path
   id="NJ"
   d="M828.16,190.33L826.059,192.755L826.059,195.827L824.119,198.898L823.957,200.515L825.25,201.808L825.089,204.233L822.826,205.365L823.634,208.113L823.796,209.244L826.544,209.568L827.514,212.154L831.07,214.579L833.495,216.196L833.495,217.004L830.262,220.076L828.645,222.339L827.19,225.087L824.927,226.381L823.715,227.108L823.472,228.32L822.863,230.927L823.955,233.171L827.188,236.081L832.038,238.345L836.08,238.991L836.241,240.446L835.433,241.416L835.756,244.164L836.565,244.164L838.666,241.739L839.475,236.89L842.223,232.848L845.294,226.382L846.426,220.885L845.779,219.754L845.618,210.377L844.001,206.982L842.87,207.791L840.121,208.114L839.636,207.629L840.768,206.659L842.87,204.719L842.933,203.625L842.548,200.192L843.033,197.443L842.872,195.342L840.285,194.21L835.758,193.24L831.879,192.108L828.16,190.33Z"
   class="state-svg" />
    <path
   id="PA"
   d="M822.207,226.46L823.339,225.813L825.602,225.201L827.057,222.452L828.673,220.189L831.907,217.118L831.907,216.309L829.482,214.693L825.925,212.268L824.955,209.681L822.207,209.358L822.045,208.226L821.237,205.478L823.5,204.347L823.662,201.922L822.369,200.628L822.53,199.012L824.47,195.94L824.47,192.869L826.814,190.444L827.029,189.36L824.442,189.199L822.179,187.259L819.754,181.924L816.749,180.993L814.419,178.852L795.828,182.894L752.826,191.623L743.935,193.078L743.439,185.995L737.952,191.625L736.659,192.11L732.456,195.119L735.367,214.256L737.849,223.985L741.421,243.247L744.69,242.609L756.633,241.107L794.56,233.441L809.436,230.618L817.737,228.996L818.004,228.757L820.105,227.141L822.207,226.46Z"
   class="state-svg" />
    <path
   id="DE"
   d="M822.353,230.423L822.942,228.32L822.963,227.116L821.694,227.027L819.592,228.644L818.137,230.099L819.592,234.302L821.856,239.96L823.957,249.66L825.574,255.964L830.585,255.803L836.727,254.591L834.463,247.236L833.493,247.721L829.937,245.296L828.158,240.608L826.218,237.051L823.955,236.081L821.854,232.525L822.353,230.423Z"
   class="state-svg" />
    <path
   id="MD"
   d="M836.953,255.305L830.812,256.597L825.006,256.759L823.163,249.66L821.061,239.96L818.798,234.302L817.51,229.904L810.004,231.526L795.127,234.349L757.676,241.9L758.807,246.912L759.777,252.57L760.101,252.247L762.202,249.822L764.465,247.204L766.89,246.589L768.345,245.134L770.124,242.547L771.417,243.194L774.327,242.87L776.913,240.769L778.92,239.315L780.765,238.83L782.41,239.96L785.32,241.415L787.26,243.194L788.472,244.729L792.594,246.427L792.594,249.337L798.091,250.63L799.235,251.172L800.647,249.144L803.529,251.114L802.251,253.596L801.486,257.581L799.707,260.168L799.707,262.27L800.354,264.048L805.418,265.404L809.729,265.342L812.801,266.312L814.902,266.635L815.872,264.534L814.417,262.432L814.417,260.654L811.992,258.552L809.891,253.056L811.184,247.721L811.022,245.619L809.729,244.326C809.729,244.326 811.184,242.709 811.184,242.063C811.184,241.416 811.669,239.961 811.669,239.961L813.609,238.668L815.549,237.051L816.034,238.021L814.579,239.638L813.286,243.356L813.609,244.488L815.387,244.811L815.872,250.307L813.771,251.277L814.094,254.834L814.579,254.672L815.711,252.732L817.327,254.511L815.711,255.804L815.387,259.199L817.974,262.594L821.854,263.079L823.47,262.27L826.707,266.453L828.065,266.99L834.719,264.193L836.726,260.169L836.953,255.305ZM820.321,264.289L821.452,266.795L821.614,268.573L822.746,270.433C822.746,270.433 823.635,269.543 823.635,269.22C823.635,268.897 822.907,266.149 822.907,266.149L822.18,263.804L820.321,264.289Z"
   class="state-svg" />
    <path
   id="WV"
   d="M756.561,241.967L757.673,246.912L758.756,253.818L762.316,251.07L764.579,247.998L767.117,247.383L768.572,245.928L770.35,243.341L771.53,243.988L774.44,243.665L777.027,241.563L779.034,240.11L780.879,239.625L782.183,240.641L784.412,241.756L786.352,243.534L787.726,244.827L787.583,249.498L781.925,246.427L777.398,244.649L777.237,249.983L776.752,252.085L775.135,254.833L774.488,256.45L771.417,258.875L770.932,261.138L767.537,261.461L767.214,264.533L766.082,270.029L763.495,270.029L762.202,269.221L760.586,266.473L758.807,266.634L758.484,270.999L756.382,277.627L751.371,288.459L752.179,289.752L752.018,292.5L749.916,294.44L748.461,294.117L745.228,296.542L742.641,295.572L740.863,300.26C740.863,300.26 737.145,301.068 736.498,301.23C735.851,301.391 734.073,299.937 734.073,299.937L731.648,302.2L729.062,302.846L726.152,302.038L724.859,300.745L722.666,297.721L719.524,295.733L716.937,292.985L714.027,289.267L713.381,287.004L710.794,285.549L709.986,283.932L709.743,278.678L711.926,278.597L713.866,277.789L714.027,275.041L715.644,273.586L715.806,268.574L716.775,264.695L718.069,264.048L719.362,265.179L719.847,266.958L721.625,265.988L722.11,264.371L720.979,262.593L720.979,260.168L721.949,258.875L724.212,255.48L725.505,254.025L727.607,254.51L729.87,252.893L732.942,249.498L735.205,245.619L735.528,239.96L736.013,234.949L736.013,230.261L734.881,227.189L735.851,225.734L737.135,224.441L740.626,244.268L745.257,243.517L756.561,241.967Z"
   class="state-svg" />
    <path
   id="KY"
   d="M721.783,297.818L719.458,300.501L715.255,304.057L710.956,309.96L709.177,311.738L709.177,313.839L705.298,315.941L699.639,319.336L696.12,319.72L644.252,324.619L628.492,326.398L623.871,326.91L620.003,326.883L619.776,331.103L611.597,331.247L604.645,331.894L594.215,332.1L596.127,331.878L598.307,330.116L600.365,328.973L600.594,325.772L601.508,323.943L599.901,321.404L600.703,319.497L602.966,317.719L605.068,317.073L607.816,318.366L611.373,319.659L612.504,319.336L612.666,317.073L611.373,314.648L611.696,312.384L613.636,310.929L616.223,310.283L617.839,309.636L617.031,307.858L616.384,305.918L617.516,305.11L618.567,301.796L621.557,300.098L627.377,299.128L630.934,298.643L632.389,300.583L634.167,301.391L635.945,298.158L638.855,296.703L640.795,298.32L641.603,299.452L643.705,298.967L643.543,295.572L646.453,293.955L647.585,293.147L648.716,294.763L653.404,294.763L654.213,292.662L653.889,290.399L656.799,286.842L661.488,282.962L661.973,278.436L664.721,278.112L668.601,276.334L671.349,274.394L671.026,272.454L669.571,270.999L670.136,268.817L674.259,268.574L676.684,267.766L679.594,269.383L681.21,273.748L687.03,274.071L688.808,275.849L690.91,276.011L693.335,274.556L696.406,275.041L697.7,276.496L700.448,273.909L702.226,272.616L703.843,272.616L704.489,275.364L706.268,276.334L708.689,278.549L708.851,284.046L709.659,285.662L712.246,287.117L712.893,289.38L715.802,293.099L718.389,295.847L721.783,297.818Z"
   class="state-svg" />
    <path
   id="OH"
   d="M731.436,195.008L725.342,199.061L721.463,201.324L718.068,205.042L714.026,208.922L710.793,209.731L707.883,210.216L702.387,212.802L700.285,212.964L696.89,209.892L691.717,210.539L689.13,209.084L686.749,207.733L681.857,208.437L671.672,210.053L663.912,211.266L665.206,225.896L666.984,239.637L669.571,263.078L670.136,267.909L674.259,267.78L676.684,266.972L680.047,268.475L682.118,272.84L687.257,272.823L689.149,274.941L690.91,274.876L693.448,273.535L695.952,273.906L697.926,275.361L699.653,273.228L701.999,271.935L704.07,271.254L704.716,274.002L706.494,274.972L709.97,277.316L712.153,277.236L713.298,276.087L713.233,274.7L714.85,273.245L715.011,268.234L715.981,264.354L717.501,262.913L719.022,263.818L719.847,265.029L721.058,264.853L720.635,262.442L720.071,261.799L720.071,259.374L721.041,258.08L723.304,254.686L724.597,253.231L726.699,253.716L728.962,252.099L732.034,248.704L734.297,244.824L734.507,239.393L734.992,234.382L734.992,229.693L733.86,226.622L734.83,225.167L735.751,224.212L734.346,214.369L731.436,195.008Z"
   class="state-svg" />
    <path
   id="MI"
   d="M581.619,82.059L583.448,80.001L585.62,79.201L590.993,75.315L593.279,74.743L593.736,75.2L588.592,80.344L585.277,82.288L583.22,83.202L581.619,82.059ZM667.794,114.187L668.44,116.693L671.674,116.855L672.967,115.642C672.967,115.642 672.886,114.187 672.563,114.026C672.239,113.864 670.946,112.166 670.946,112.166L668.764,112.409L667.147,112.571L666.824,113.702L667.794,114.187ZM697.86,177.237L694.627,168.992L692.364,159.939L689.939,156.706L687.352,154.928L685.736,156.059L681.856,157.838L679.916,162.849L677.168,166.567L676.036,167.214L674.581,166.567C674.581,166.567 671.994,165.112 672.156,164.466C672.318,163.819 672.641,159.454 672.641,159.454L676.036,158.161L676.844,154.766L677.491,152.18L679.916,150.563L679.592,140.54L677.976,138.277L676.683,137.468L675.874,135.367L676.683,134.559L678.299,134.882L678.461,133.265L676.036,131.002L674.743,128.415L672.156,128.415L667.63,126.96L662.133,123.566L659.385,123.566L658.738,124.212L657.768,123.727L654.697,121.464L651.787,123.242L648.877,125.506L649.2,129.062L650.17,129.385L652.272,129.87L652.757,130.679L650.17,131.487L647.584,131.81L646.129,133.589L645.805,135.69L646.129,137.307L646.452,142.803L642.896,144.905L642.249,144.743L642.249,140.54L643.542,138.115L644.189,135.69L643.38,134.882L641.441,135.69L640.471,139.893L637.722,141.025L635.944,142.965L635.782,143.935L636.429,144.743L635.782,147.33L633.519,147.815L633.519,148.946L634.328,151.371L633.196,157.514L631.579,161.556L632.226,166.244L632.711,167.376L631.903,169.801L631.579,170.609L631.256,173.357L634.812,179.338L637.722,185.805L639.177,190.655L638.369,195.343L637.399,201.324L634.974,206.497L634.651,209.246L631.392,212.331L635.801,212.169L657.219,209.906L664.497,208.918L664.593,210.585L671.445,209.372L681.743,207.869L685.597,207.408L685.736,206.821L685.897,205.366L687.999,201.648L689.999,199.91L689.777,194.858L691.374,193.261L692.465,192.918L692.687,189.361L694.223,186.33L695.274,186.937L695.435,187.583L696.243,187.745L698.183,186.775L697.86,177.237ZM567.492,111.213L568.208,110.633L570.957,109.824L574.513,107.561L574.513,106.591L575.16,105.945L581.141,104.975L583.566,103.035L587.931,100.933L588.093,99.64L590.033,96.73L591.811,95.922L593.104,94.143L595.367,91.88L599.732,89.455L604.42,88.97L605.552,90.102L605.229,91.072L601.51,92.042L600.055,95.113L597.792,95.922L597.307,98.347L594.882,101.58L594.559,104.166L595.367,104.651L596.337,103.52L599.894,100.61L601.187,101.903L603.45,101.903L606.684,102.873L608.139,104.005L609.593,107.076L612.342,109.824L616.222,109.663L617.676,108.693L619.293,109.986L620.91,110.471L622.203,109.663L623.335,109.663L624.951,108.693L628.993,105.136L632.388,104.005L639.016,103.681L643.542,101.741L646.129,100.448L647.584,100.61L647.584,106.268L648.069,106.591L650.979,107.4L652.918,106.915L659.062,105.298L660.193,104.166L661.648,104.651L661.648,111.603L664.881,114.674L666.175,115.321L667.468,116.291L666.175,116.614L665.366,116.291L661.648,115.806L659.547,116.453L657.283,116.291L654.05,117.746L652.272,117.746L646.452,116.453L641.279,116.614L639.339,119.201L632.388,119.847L629.963,120.656L628.831,123.727L627.538,124.859L627.053,124.697L625.598,123.081L621.071,125.506L620.425,125.506L619.293,123.889L618.485,124.051L616.545,128.415L615.575,132.457L612.394,139.458L611.217,138.423L609.845,137.392L607.904,127.104L604.36,125.734L602.307,123.448L590.187,120.704L587.332,119.675L579.101,117.502L571.211,116.359L567.492,111.213Z"
   class="state-svg" />
    <path
   id="WY"
   d="M354.252,143.776L343.703,142.969L311.615,139.673L295.382,137.616L267.033,133.501L247.143,130.529L245.724,141.704L241.885,165.965L236.626,196.372L235.095,206.888L233.426,218.777L239.949,219.705L265.829,222.205L286.398,224.512L323.182,228.627L347.003,231.487L351.507,187.295L352.947,161.918L354.252,143.776Z"
   class="state-svg" />
    <path
   id="MT"
   d="M356.671,122.274L357.318,111.123L359.577,86.336C360.034,81.306 360.661,77.864 360.949,70.926L361.888,56.374L331.214,53.567L301.954,50.01L272.693,45.969L240.361,40.634L221.932,37.239L189.208,30.306L184.729,51.654L188.158,59.198L186.787,63.771L188.616,68.343L191.816,69.715L196.437,80.484L199.132,83.661L199.589,84.804L203.019,85.947L203.476,88.005L196.389,105.609L196.389,108.124L198.904,111.324L199.818,111.324L204.619,108.352L205.305,107.209L206.905,107.895L206.677,113.153L209.42,125.727L212.392,128.242L213.307,128.928L215.136,131.214L214.679,134.644L215.364,138.073L216.508,138.988L218.794,136.701L221.537,136.701L224.738,138.302L227.253,137.387L231.368,137.387L235.026,138.988L237.769,138.53L238.227,135.558L241.199,134.872L242.571,136.244L243.028,139.445L244.807,140.81L246.341,129.245L267.033,132.217L295.222,136.172L311.775,138.069L343.221,141.525L354.211,143.049L355.263,127.621L356.671,122.274Z"
   class="state-svg" />
    <path
   id="ID"
   d="M162.119,180.96C139.509,176.616 147.972,178.113 140.979,176.609L145.406,159.106L149.75,141.388L151.121,137.159L153.636,131.215L152.379,128.928L149.864,129.043L149.064,128.014L149.521,126.871L149.864,123.784L154.322,118.297L156.151,117.84L157.294,116.697L157.866,113.496L158.78,112.81L162.667,106.981L166.553,102.637L166.782,98.864L163.353,96.235L162.038,91.834L162.438,82.175L166.096,65.714L170.554,44.91L174.327,31.421L175.089,27.618L188.085,30.146L183.927,51.654L186.875,59.359L185.824,63.931L187.813,68.504L191.014,70.196L195.474,80.003L198.169,83.821L198.787,84.964L202.216,86.108L202.674,88.647L195.747,105.448L196.068,108.765L198.743,111.645L200.62,112.127L205.422,108.513L205.786,108.011L205.943,108.858L206.195,112.993L208.778,125.888L212.232,128.563L212.665,129.41L214.815,131.856L214.037,134.644L214.723,138.394L216.668,139.309L218.794,137.664L221.377,137.183L224.738,138.783L227.253,138.19L231.047,138.029L235.026,139.629L237.769,139.333L238.708,137.003L241.199,135.354L241.929,137.046L242.546,139.284L244.855,141.823L241.082,165.805L235.938,194.813L231.779,194.495L223.595,192.962L213.788,191.133L201.625,188.755L189.097,186.251L180.614,184.411L171.355,182.743L162.119,180.96Z"
   class="state-svg" />
    <path
   id="WA"
   d="M93.573,6.362L97.938,7.817L107.638,10.565L116.206,12.505L136.252,18.163L159.207,23.821L174.368,27.216L173.364,31.1L169.271,44.91L164.812,65.714L161.636,81.854L161.284,91.233L148.103,87.339L132.533,83.956L118.866,84.551L117.285,83.019L111.959,84.916L107.982,84.666L105.261,82.905L103.682,83.43L99.477,83.202L97.602,81.83L92.825,80.093L91.383,79.887L86.397,78.561L84.614,80.069L78.923,79.726L74.102,75.932L74.306,75.132L74.375,67.198L72.249,63.311L68.134,62.579L67.769,60.225L65.254,59.598L62.373,59.063L60.594,60.033L58.331,57.123L58.655,54.213L61.403,53.89L63.019,49.848L60.433,48.717L60.594,44.999L64.959,44.352L62.211,41.604L60.756,34.491L61.403,31.581L61.403,23.659L59.625,20.426L61.888,11.05L63.989,11.535L66.414,14.445L69.163,17.031L72.396,18.971L76.922,21.073L79.994,21.72L82.904,23.174L86.299,24.144L88.562,23.983L88.562,21.558L89.855,20.426L91.957,19.133L92.28,20.265L92.603,22.043L90.34,22.528L90.017,24.629L91.795,26.084L92.927,28.509L93.573,30.449L95.028,30.288L95.19,28.994L94.22,27.701L93.735,24.468L94.543,22.689L93.897,21.235L93.897,18.971L95.675,15.415L94.543,12.828L92.118,7.978L92.442,7.17L93.573,6.362ZM84.117,12.341L86.137,12.179L86.622,13.553L88.158,11.937L90.502,11.937L91.31,13.472L89.775,15.17L90.421,15.978L89.694,17.999L88.32,18.403C88.32,18.403 87.431,18.484 87.431,18.161C87.431,17.837 88.886,15.574 88.886,15.574L87.188,15.008L86.865,16.463L86.137,17.11L84.602,14.846L84.117,12.341Z"
   class="state-svg" />
    <path
   id="TX"
   d="M357.053,333.374L379.744,334.46L410.837,335.603L408.502,359.059L408.205,377.212L408.274,379.294L412.617,383.113L414.354,383.935L416.163,384.187L416.849,382.932L417.739,383.798L419.476,384.28L421.081,383.55L422.22,383.959L421.923,387.364L426.198,388.395L428.874,389.217L432.829,389.743L435.022,391.572L438.272,389.995L441.059,390.36L443.092,393.148L444.167,393.469L444.007,395.434L447.095,396.601L449.863,394.796L451.371,395.161L453.726,395.322L454.159,397.195L458.799,399.184L461.455,398.98L463.444,394.865L463.785,394.865L464.928,396.762L469.364,397.769L472.701,398.98L475.994,399.734L478.144,398.98L478.991,396.465L482.692,396.465L484.59,397.219L487.654,395.643L488.316,395.643L488.681,396.762L492.956,396.762L495.359,395.507L497.028,395.803L498.443,397.676L501.323,399.345L504.845,400.42L507.588,401.838L510.035,403.46L513.328,402.57L515.269,403.552L515.78,413.692L516.115,423.394L516.801,432.928L517.327,436.975L520.002,441.572L521.077,445.639L524.939,451.928L525.489,454.808L526.014,455.815L525.328,463.311L522.677,467.698L523.636,470.558L523.271,473.073L522.424,480.389L521.053,483.109L521.657,487.495L515.992,489.08L506.131,493.606L505.161,495.546L502.574,497.486L500.473,498.941L499.179,499.75L493.521,505.084L490.773,507.186L485.438,510.419L479.78,512.844L473.475,516.239L471.697,517.694L465.877,521.25L462.482,521.897L458.603,527.393L454.561,527.717L453.591,529.657L455.854,531.597L454.399,537.093L453.106,541.62L451.974,545.499L451.166,550.026L451.974,552.451L453.753,559.402L454.723,565.545L456.501,568.294L455.531,569.749L452.459,571.688L446.801,567.809L441.305,566.677L440.012,567.162L436.778,566.515L432.575,563.444L427.402,562.312L419.804,558.917L417.702,555.037L416.409,548.571L413.176,546.631L412.529,544.368L413.176,543.721L413.499,540.326L412.206,539.68L411.559,538.71L412.853,534.345L411.236,532.082L408.003,530.788L404.608,526.424L401.051,519.795L396.848,517.209L397.01,515.269L391.675,502.983L390.867,498.78L389.089,496.84L388.927,495.385L382.945,490.05L380.359,486.978L380.359,485.847L377.772,483.745L370.983,482.614L363.546,481.967L360.475,479.704L355.948,481.482L352.392,482.937L350.128,486.17L349.158,489.888L344.794,496.031L342.369,498.456L339.782,497.486L338.004,496.355L336.064,495.708L332.184,493.445L332.184,492.798L330.406,490.858L325.233,488.757L317.796,480.997L315.533,476.309L315.533,468.226L312.3,461.759L311.815,459.011L310.198,458.041L309.067,455.94L304.055,453.838L302.762,452.221L295.649,444.3L294.356,441.067L289.667,438.804L288.212,434.439L285.626,431.529L283.686,431.044L283.037,426.366L291.039,427.052L320.074,429.796L349.109,431.396L351.395,407.619L355.281,352.064L356.882,333.317L358.254,333.345M457.23,567.323L456.664,560.21L453.916,553.016L453.35,545.984L454.886,537.739L458.2,530.868L461.676,525.453L464.828,521.896L465.475,522.139L460.706,528.767L456.341,535.314L454.32,541.942L453.997,547.115L454.886,553.259L457.473,560.452L457.958,565.626L458.119,567.081L457.23,567.323Z"
   class="state-svg" />
    <path
   id="CA"
   d="M136.741,386.754L140.556,386.265L142.042,384.254L142.774,382.312L139.598,382.222L138.499,380.459L139.277,378.745L139.231,372.594L141.449,371.266L144.146,368.683L144.557,363.768L146.204,360.27L148.147,358.166L151.416,356.452L152.695,355.722L153.452,354.238L152.583,353.346L151.623,351.835L150.686,346.487L147.782,341.251L147.879,338.464L145.678,335.216L130.679,311.987L111.247,283.273L88.82,250.239L76.117,230.694L77.914,223.486L84.726,197.537L92.842,166.101L80.477,162.764L66.988,159.335L54.414,155.22L46.87,153.162L35.438,150.19L28.388,147.778L26.807,152.503L26.646,159.939L21.473,171.74L18.401,174.327L18.078,175.459L16.3,176.267L14.845,180.47L14.036,183.703L16.785,187.906L18.401,192.11L19.533,195.666L19.209,202.133L17.431,205.204L16.785,211.024L15.815,214.742L17.593,218.622L20.341,223.148L22.604,227.998L23.898,232.04L23.574,235.273L23.251,235.758L23.251,237.86L28.909,244.164L28.424,246.589L27.777,248.852L27.131,250.792L27.292,259.037L29.394,262.755L31.334,265.342L34.082,265.827L35.052,268.575L33.921,272.132L31.819,273.748L30.687,273.748L29.879,277.628L30.364,280.538L33.597,284.903L35.214,290.238L36.669,294.926L37.962,297.997L41.357,303.817L42.812,306.404L43.297,309.313L44.913,310.283L44.913,312.708L44.105,314.648L42.327,321.761L41.842,323.701L44.267,326.45L48.47,326.934L52.996,328.713L56.876,330.814L59.786,330.814L62.696,333.886L65.283,338.736L66.414,340.999L70.294,343.101L75.144,343.909L76.599,346.01L77.246,349.244L75.791,349.89L76.114,350.86L79.347,351.669L82.095,351.83L85.005,356.518L88.885,360.722L89.693,362.985L92.28,367.188L92.603,370.421L92.603,379.797L93.088,381.576L103.111,383.031L122.834,385.779L136.741,386.754ZM48.794,337.037L50.087,338.573L49.925,339.866L46.692,339.785L46.126,338.573L45.48,337.118L48.794,337.037ZM50.734,337.037L51.946,336.39L55.503,338.492L58.574,339.704L57.685,340.351L53.158,340.108L51.542,338.492L50.734,337.037ZM71.426,356.84L73.204,359.184L74.013,360.154L75.549,360.72L76.114,359.265L75.144,357.487L72.477,355.466L71.426,355.628L71.426,356.84ZM69.971,365.489L71.749,368.642L72.962,370.582L71.507,370.824L70.214,369.612C70.214,369.612 69.486,368.157 69.486,367.753C69.486,367.348 69.486,365.57 69.486,365.57L69.971,365.489Z"
   class="state-svg" />
    <path
   id="AZ"
   d="M137.747,387.5L135.12,389.659L134.797,391.114L135.282,392.084L154.196,402.753L166.32,410.351L181.032,418.919L197.844,428.942L210.13,431.367L235.258,434.072L237.789,421.565L241.542,394.322L248.507,341.441L252.764,310.475L228.167,306.797L200.961,302.224L167.532,295.906L164.61,313.998L164.153,314.456L162.438,317.085L159.923,316.97L158.666,314.227L155.922,313.884L155.008,312.741L154.094,312.741L153.179,313.312L151.236,314.341L151.121,321.314L150.893,323.029L150.321,335.603L148.835,337.775L148.264,341.09L151.007,346.005L152.265,351.835L153.065,352.864L154.094,353.436L153.979,355.722L152.379,357.094L148.95,358.808L147.006,360.752L145.52,364.41L144.949,369.325L142.091,372.068L140.033,372.754L139.919,378.584L139.462,380.299L139.919,381.099L143.577,381.671L143.005,384.414L141.519,386.586L137.747,387.5Z"
   class="state-svg" />
    <path
   id="NV"
   d="M140.658,177.572L161.638,182.083L171.355,184.026L180.614,185.855L187.228,187.489L186.67,193.354L183.126,210.683L179.033,230.663L177.09,240.382L174.918,253.664L171.763,270.079L168.242,285.763L166.273,295.944L163.808,312.714L163.351,313.814L162.278,316.282L160.405,316.168L159.308,313.425L156.564,312.921L155.168,311.938L153.131,312.259L152.216,312.991L150.915,314.341L150.48,321.314L149.93,323.029L149.519,335.122L148.197,336.836L146.32,334.574L131.803,311.826L112.37,282.791L89.622,248.955L77.24,230.373L78.877,223.807L85.85,197.858L93.737,166.51L127.345,174.653L141.062,177.625"
   class="state-svg" />
    <path
   id="UT"
   d="M252.971,309.307L228.328,305.834L201.764,300.94L167.937,294.92L169.526,285.763L172.726,270.56L176.041,253.985L178.213,240.382L180.156,231.466L183.929,211.004L187.472,193.514L188.587,187.941L201.304,190.199L213.307,192.257L223.595,194.086L231.939,195.457L235.617,195.937L234.132,206.567L231.821,219.74L239.629,220.668L256.035,222.473L264.246,223.329L262.116,245.297L258.915,267.863L255.162,295.689L253.496,306.797L252.971,309.307Z"
   class="state-svg" />
    <path
   id="CO"
   d="M378.621,256.796L380.061,235.515L347.966,232.45L323.503,229.751L286.237,225.635L265.547,223.121L262.918,245.297L259.717,267.702L255.965,295.689L254.459,306.797L254.208,309.56L288.135,313.354L325.875,317.621L357.836,320.787L374.444,321.633"
   class="state-svg" />
    <path
   id="NM"
   d="M282.724,431.045L282.074,424.922L290.718,425.447L320.234,428.512L348.627,429.952L350.592,407.619L354.319,351.743L355.438,332.354L357.451,332.703L357.437,321.628L325.233,319.225L288.295,314.798L253.83,310.683L249.63,341.441L242.665,394.643L238.913,421.565L236.863,434.874L252.324,436.864L253.617,426.841L270.268,429.427L282.724,431.045Z"
   class="state-svg" />
    <path
   id="OR"
   d="M140.306,176.686L144.603,158.786L149.268,140.907L150.319,136.677L152.673,131.054L152.058,129.891L149.543,129.845L148.261,128.174L148.719,126.71L149.222,123.463L153.68,117.976L155.509,116.877L156.652,115.734L158.138,112.168L162.185,106.499L165.751,102.637L165.98,99.185L162.711,96.717L161.502,92.207L148.264,88.462L133.175,84.918L117.743,85.033L117.285,83.661L111.798,85.719L107.34,85.147L104.94,83.547L103.682,84.233L98.995,84.004L97.281,82.632L92.022,80.575L91.222,80.689L86.878,79.203L84.935,81.032L78.762,80.689L72.818,76.574L73.504,75.774L73.733,68L71.446,64.114L67.331,63.542L66.645,61.027L64.291,60.561L58.493,62.62L56.23,69.086L52.996,79.109L49.763,85.575L44.752,99.64L38.285,113.219L30.202,125.829L28.262,128.739L27.454,137.307L26.161,143.288L28.869,146.816L35.599,149.067L47.19,152.36L55.056,154.899L67.47,158.533L80.798,162.123L93.966,165.688"
   class="state-svg" />
    <path
   id="ND"
   d="M471.305,127.668L470.94,120.172L468.951,112.856L467.122,99.207L466.665,89.376L464.675,86.268L463.075,80.917L463.075,70.629L463.761,66.743L461.645,61.244L433.222,60.68L414.631,60.033L388.119,58.74L363.172,56.856L361.912,71.087L360.54,86.176L358.281,111.123L357.795,122.143L414.611,125.908L471.305,127.668Z"
   class="state-svg" />
    <path
   id="SD"
   d="M472.797,203.181L471.843,202.1L470.323,198.473L472.152,194.771L473.202,189.216L470.619,187.159L470.323,184.415L470.916,181.419L473.066,180.617L473.363,174.881L473.295,144.795L472.677,141.823L468.562,138.233L467.579,136.244L467.579,134.323L469.476,133.043L471.009,131.19L471.191,128.471L413.809,126.87L357.635,122.984L356.868,128.263L355.255,144.131L353.91,162.078L352.309,186.675L368.337,187.704L387.975,188.847L405.968,190.151L429.744,191.454L440.49,190.676L443.35,192.962L447.669,195.934L448.652,196.688L452.193,195.798L456.24,195.501L458.984,195.433L462.097,196.644L466.645,198.084L469.777,199.845L470.395,201.766L471.31,203.664L472.015,203.182L472.797,203.181Z"
   class="state-svg" />
    <path
   id="NE"
   d="M484.244,246.99L485.616,249.665L485.709,251.791L488.063,255.517L490.782,258.669L485.733,258.669L442.25,257.731L401.463,256.84L380.272,255.88L381.344,234.552L347.966,231.808L352.309,187.798L367.856,188.827L387.975,189.97L405.807,191.113L429.584,192.257L440.329,191.799L442.387,194.086L447.188,197.058L448.331,197.972L452.675,196.6L456.561,196.143L459.305,195.915L461.134,197.286L466.163,198.887L469.136,200.487L469.593,202.087L470.507,204.145L472.336,204.145L473.134,204.191L474.117,209.403L476.86,217.429L478.096,222.07L480.222,225.888L480.747,230.826L482.187,235.101L482.736,241.571"
   class="state-svg" />
    <path
   id="IA"
   d="M566.594,201.628L566.764,203.571L569.05,204.711L570.192,205.967L570.536,207.229L574.422,210.431L575.108,212.604L574.309,215.466L572.82,219.01L572.021,221.752L569.848,223.354L568.133,223.927L562.647,225.412L561.961,227.695L561.162,229.979L561.734,231.351L563.45,233.065L563.448,236.726L561.279,238.327L560.82,239.813L560.82,242.33L559.331,242.787L557.618,244.157L557.162,245.642L557.618,247.36L556.243,248.564L553.95,245.873L552.466,243.246L544.125,244.045L533.954,244.616L508.918,245.304L495.883,245.532L486.509,245.761L485.193,245.882L483.539,241.41L483.31,234.78L481.71,230.665L481.024,225.407L478.738,221.749L477.823,216.948L475.08,209.403L473.937,204.031L472.565,201.859L470.965,199.115L472.794,194.771L474.165,189.056L471.422,186.998L470.965,184.255L471.879,181.74L485.139,181.74L534.75,181.054L554.627,180.368L556.478,183.115L558.31,185.737L558.766,186.541L556.935,189.289L557.391,193.511L559.905,197.398L562.874,199.222L565.279,199.452L566.594,201.628Z"
   class="state-svg" />
    <path
   id="MS"
   d="M624.559,466.97L624.305,468.226L619.131,468.226L617.676,467.417L615.575,467.094L608.785,469.034L607.007,468.226L604.42,472.429L603.318,473.207L602.194,470.719L601.051,466.832L597.622,463.632L598.765,456.087L598.079,455.173L596.25,455.401L588.019,456.087L563.785,456.773L563.328,455.173L564.014,447.171L567.443,440.998L572.702,431.853L571.787,429.795L572.93,429.795L573.616,426.595L571.33,424.766L571.559,422.937L569.501,418.364L569.215,413.02L570.587,410.363L570.187,406.019L568.815,403.047L570.187,401.675L568.815,399.617L569.272,397.788L570.187,391.616L573.159,388.872L572.473,386.814L576.131,381.556L578.874,380.642L578.874,378.127L578.189,376.755L580.932,371.497L583.676,370.354L583.783,366.942L592.458,366.864L616.546,364.924L621.126,364.696L621.135,371.067L621.296,387.718L620.488,418.757L620.326,432.822L623.074,451.574L624.559,466.97Z"
   class="state-svg" />
    <path
   id="IN"
   d="M618.42,300.855L618.486,297.997L618.971,293.47L621.234,290.56L623.012,286.68L625.599,282.477L625.114,276.657L623.336,273.909L623.012,270.676L623.821,265.179L623.336,258.228L622.042,242.224L620.749,226.866L619.779,215.146L622.85,216.035L624.305,217.005L625.436,216.682L627.538,214.742L630.367,213.125L635.46,212.963L657.446,210.7L663.022,210.167L664.525,226.123L668.776,262.964L669.375,268.736L669.003,270.999L670.231,272.795L670.328,274.167L667.806,275.767L664.267,277.318L661.065,277.868L660.466,282.735L655.892,286.048L653.095,290.058L653.418,292.435L652.837,293.969L649.511,293.969L647.925,292.352L645.432,293.615L642.749,295.118L642.911,298.172L641.717,298.43L641.249,297.412L639.082,295.909L635.832,297.25L634.28,300.257L632.843,299.448L631.388,297.849L626.923,298.334L621.33,299.304L618.42,300.855Z"
   class="state-svg" />
    <path
   id="IL"
   d="M617.805,301.601L617.805,297.997L618.063,293.13L620.44,289.993L622.218,286.226L624.805,282.364L624.433,277.111L622.428,273.569L622.331,270.222L623.026,264.953L622.201,257.774L621.135,241.997L619.841,226.979L618.919,215.34L618.646,214.419L617.838,211.832L616.545,208.114L614.928,206.336L613.473,203.749L613.24,198.26L603.337,199.572L576.131,201.287L567.443,200.859L567.672,203.23L569.958,203.916L570.873,205.059L571.33,206.888L575.216,210.318L575.902,212.604L575.216,216.033L573.387,219.691L572.702,222.206L570.415,224.035L568.586,224.721L563.328,226.093L562.642,227.922L561.956,229.979L562.642,231.351L564.471,232.951L564.243,237.067L562.414,238.667L561.728,240.267L561.728,243.011L559.899,243.468L558.298,244.611L558.07,245.983L558.298,248.04L556.584,249.355L555.555,252.156L556.012,255.814L558.298,263.13L565.614,270.674L571.101,274.332L570.873,278.676L571.787,280.048L578.189,280.505L580.932,281.877L580.246,285.535L577.96,291.479L577.274,294.68L579.56,298.566L585.962,303.824L590.534,304.51L592.592,309.54L594.649,312.741L593.735,315.713L595.335,319.828L597.164,321.886L599.109,321.093L599.795,318.93L601.832,317.492L605.068,316.392L608.157,317.572L611.032,318.638L611.823,318.428L611.758,317.186L610.692,314.421L611.129,312.044L613.409,310.476L615.769,309.489L616.931,309.069L616.35,307.744L615.59,305.578L616.835,304.315L617.805,301.601Z"
   class="state-svg" />
    <path
   id="MN"
   d="M471.879,128.471L471.422,120.012L469.593,112.696L467.764,99.207L467.307,89.376L465.478,85.947L463.877,80.917L463.877,70.629L464.563,66.743L462.742,61.291L492.875,61.326L493.198,53.082L493.845,52.92L496.108,53.405L498.048,54.213L498.856,59.71L500.311,65.853L501.928,67.469L506.777,67.469L507.101,68.924L513.405,69.248L513.405,71.349L518.255,71.349L518.579,70.056L519.71,68.924L521.973,68.278L523.267,69.248L526.177,69.248L530.057,71.834L535.391,74.259L537.816,74.744L538.301,73.774L539.756,73.289L540.241,76.199L542.828,77.492L543.313,77.007L544.606,77.169L544.606,79.271L547.193,80.241L550.264,80.241L551.881,79.432L555.114,76.199L557.7,75.714L558.509,77.492L558.994,78.786L559.964,78.786L560.934,77.977L569.825,77.654L571.603,80.726L572.25,80.726L572.963,79.641L577.403,79.271L576.791,81.55L572.853,83.387L563.607,87.448L558.832,89.455L555.761,92.042L553.336,95.598L551.072,99.478L549.294,100.287L544.768,105.298L543.474,105.46L539.633,108.394L536.816,111.554L536.588,114.525L536.815,122.303L535.218,123.903L529.959,128.017L528.127,133.734L530.645,137.382L531.104,139.902L529.956,142.876L529.729,146.535L530.186,153.619L533.612,157.726L536.588,157.726L539.097,160.019L542.3,161.384L545.959,166.419L553.047,171.442L554.877,173.504L555.111,179.006L534.523,179.692L474.275,180.151L473.937,144.474L473.479,141.502L469.364,138.073L468.221,136.244L468.221,134.644L470.279,133.043L471.65,131.672L471.879,128.471Z"
   class="state-svg" />
    <path
   id="WI"
   d="M612.941,197.181L613.312,194.211L611.695,189.685L611.048,183.542L609.917,181.117L610.887,178.045L611.695,175.135L613.15,172.549L612.503,169.154L611.857,165.597L612.342,163.819L614.282,161.394L614.443,158.646L613.635,157.353L614.282,154.766L614.767,151.533L617.515,145.875L620.425,139.085L620.586,136.822L620.263,135.852L619.455,136.337L615.252,142.642L612.503,146.683L610.563,148.461L609.755,150.725L608.3,151.533L607.169,153.473L605.714,153.149L605.552,151.371L606.845,148.946L608.947,144.258L610.725,142.642L611.826,140.35L610.196,139.445L608.824,138.073L607.224,127.785L603.566,126.642L602.194,124.356L589.62,121.612L587.105,120.469L578.874,118.183L570.644,117.04L566.475,111.635L565.945,112.896L564.814,112.734L564.167,111.603L561.419,110.794L560.287,110.956L558.509,111.926L557.539,111.279L558.185,109.339L560.125,106.268L561.257,105.136L559.317,103.681L557.215,104.49L554.306,106.43L546.869,109.663L543.959,110.309L541.049,109.824L540.068,108.946L537.951,111.781L537.722,114.525L537.722,122.984L536.579,124.584L531.321,128.471L529.035,134.415L529.492,134.644L532.007,136.701L532.693,139.902L530.864,143.103L530.864,146.989L531.321,153.619L534.293,156.591L537.722,156.591L539.551,159.792L542.981,160.249L546.867,165.965L553.955,170.08L556.012,172.824L556.927,180.254L557.613,183.569L559.899,185.169L560.127,186.541L558.07,189.97L558.298,193.171L560.813,197.058L563.328,198.201L566.3,198.658L567.643,200.038L576.816,200.038L602.883,198.551L612.941,197.181Z"
   class="state-svg" />
    <path
   id="MO"
   d="M555.789,249.527L553.269,246.44L552.126,244.154L544.352,244.84L534.522,245.297L509.145,246.212L495.656,246.44L487.768,246.554L485.482,246.669L486.74,249.184L486.511,251.47L489.026,255.356L492.112,259.472L495.199,262.215L497.485,262.444L498.857,263.358L498.857,266.33L497.028,267.931L496.57,270.217L498.628,273.646L501.143,276.618L503.658,278.447L505.029,290.107L504.343,325.429L504.572,330.116L505.029,335.5L528.462,335.383L551.668,334.697L572.473,333.896L584.128,333.666L586.297,337.092L585.613,340.399L582.526,342.802L581.953,344.639L587.332,345.097L591.227,344.411L592.944,338.917L593.595,333.06L595.914,331.036L597.627,329.549L599.684,328.519L599.799,325.659L600.373,323.943L599.342,322.195L596.597,322.34L594.427,319.715L593.054,315.486L593.855,312.968L591.911,309.54L590.08,304.964L585.281,304.165L578.312,298.566L576.593,294.453L577.393,291.252L579.452,285.194L579.911,282.331L577.962,281.299L571.106,280.502L570.078,278.789L569.967,274.559L564.48,271.128L557.504,263.357L555.218,256.041L554.988,251.815L555.789,249.527Z"
   class="state-svg" />
    <path
   id="AR"
   d="M590.952,344.953L587.105,345.891L580.932,345.434L581.618,342.462L584.819,339.718L585.276,337.432L583.447,334.46L572.473,334.917L551.668,335.832L528.349,336.517L505.029,336.975L506.63,343.833L506.63,352.064L508.001,363.038L508.23,400.875L510.516,402.818L513.488,401.446L516.232,402.589L516.662,412.913L539.548,412.771L558.412,411.97L568.533,411.772L569.679,409.682L569.392,406.132L567.567,403.16L569.166,401.675L567.567,399.163L568.251,396.654L569.619,391.048L572.138,388.986L571.452,386.701L575.11,381.329L577.853,379.961L577.74,378.467L577.394,376.642L580.251,371.043L582.654,369.786L583.038,366.359L584.809,365.117L585.666,360.883L584.324,356.872L588.366,354.495L588.916,352.476L590.151,348.209L590.952,344.953Z"
   class="state-svg" />
    <path
   id="OK"
   d="M375.343,322.571L364.655,322.114L358.225,321.628L358.482,321.828L357.779,332.251L379.744,333.657L411.8,334.961L409.465,359.38L409.008,377.212L409.236,378.813L413.58,382.471L415.638,383.614L416.324,383.385L417.01,381.327L418.381,383.156L420.439,383.156L420.439,381.785L423.182,383.156L422.725,387.043L426.84,387.272L429.355,388.415L433.47,389.101L435.985,390.93L438.272,388.872L441.701,389.558L444.216,392.987L445.13,392.987L445.13,395.273L447.416,395.959L449.703,393.673L451.532,394.359L454.046,394.359L454.961,396.874L459.762,398.703L461.134,398.017L462.963,393.902L464.106,393.902L465.249,395.959L469.364,396.645L473.022,398.017L475.994,398.931L477.823,398.017L478.509,395.502L482.853,395.502L484.911,396.417L487.654,394.359L488.797,394.359L489.483,395.959L493.598,395.959L495.199,393.902L497.028,394.359L499.085,396.874L502.286,398.703L505.487,399.617L507.428,400.736L507.039,363.519L505.667,352.545L505.506,343.673L504.066,337.135L503.288,329.956L503.22,326.139L491.083,326.458L444.673,326.001L399.634,323.943L375.343,322.571Z"
   class="state-svg" />
    <path
   id="KS"
   d="M503.381,325.13L490.762,325.335L444.673,324.877L400.116,322.82L375.486,321.562L379.63,256.842L401.463,257.643L441.929,259.014L486.054,259.472L491.149,259.472L494.396,262.697L497.164,262.925L498.054,264L498.054,266.009L496.225,267.61L495.768,270.217L497.986,273.807L500.501,276.939L503.016,278.929L504.066,290.107L503.381,325.13Z"
   class="state-svg" />
    <path
   id="LA"
   d="M602.202,472.995L601.173,470.379L600.03,467.286L596.714,463.745L597.63,456.995L597.511,455.853L596.25,456.196L588.019,457.108L562.991,457.567L562.307,455.173L563.22,446.717L566.536,440.771L571.567,432.08L570.993,429.682L572.249,429.001L572.708,427.049L570.422,424.993L570.31,423.05L568.48,418.705L568.023,412.764L558.298,412.877L539.094,413.792L516.889,413.82L516.918,423.394L517.604,432.768L518.289,436.654L520.804,440.769L521.719,445.799L526.063,451.286L526.291,454.487L526.977,455.173L526.291,463.632L523.319,468.661L524.92,470.719L524.234,473.234L523.548,480.55L522.176,483.75L522.298,487.367L526.985,485.847L535.068,485.523L545.414,489.08L551.881,490.212L555.599,488.757L558.832,489.888L562.065,490.858L562.874,488.757L559.64,487.625L557.054,488.11L554.306,486.493C554.306,486.493 554.467,485.2 555.114,485.038C555.761,484.877 558.185,484.068 558.185,484.068L559.964,485.523L561.742,484.553L564.975,485.2L566.43,487.625L566.753,489.888L571.28,490.212L573.058,491.99L572.25,493.606L570.957,494.415L572.573,496.031L580.98,499.588L584.536,498.295L585.506,495.87L588.093,495.223L589.871,493.768L591.164,494.738L591.972,497.648L589.709,498.456L590.356,499.103L593.751,497.81L596.014,494.415L596.822,493.93L594.721,493.606L595.529,491.99L595.367,490.535L597.469,490.05L598.601,488.757L599.247,489.565C599.247,489.565 599.086,492.636 599.894,492.636C600.702,492.636 604.097,493.283 604.097,493.283L608.139,495.223L609.108,496.678L612.018,496.678L613.15,497.648L615.413,494.576L615.413,493.121L614.12,493.121L610.725,490.373L604.905,489.565L601.672,487.302L602.804,484.553L605.067,484.877L605.229,484.23L603.45,483.26L603.45,482.775L606.684,482.775L608.462,479.704L607.169,477.764L606.845,475.015L605.39,475.177L603.45,477.279L602.804,479.865L599.732,479.219L598.762,477.44L600.54,475.5L602.561,473.722L602.202,472.995Z"
   class="state-svg" />
    <path
   id="VA"
   d="M828.907,269.246L828.763,267.299L835.216,264.749L834.446,267.967L831.526,271.746L831.108,276.332L831.569,279.722L829.741,284.7L827.577,286.616L826.107,281.975L826.553,276.526L828.14,272.343L828.907,269.246ZM831.186,297.547L773.012,310.122L735.585,315.402L728.907,315.026L726.321,316.953L718.982,317.173L710.6,318.151L701.674,319.103L710.155,314.155L710.142,312.08L711.662,309.933L722.215,298.432L726.162,302.91L729.945,303.873L732.489,302.733L734.726,301.422L737.262,302.766L741.177,301.338L743.053,296.781L745.654,297.321L748.509,295.19L750.309,295.684L753.136,292.007L753.484,289.924L752.521,288.649L753.523,286.782L758.798,274.505L759.414,268.77L760.643,268.246L762.822,270.689L766.758,270.388L768.687,262.814L771.481,262.253L772.531,259.512L775.11,257.165L776.378,254.823L777.882,251.47L777.967,246.403L787.789,250.225C788.469,250.566 788.445,245.442 788.445,245.442L792.495,246.819L792.033,249.448L800.189,252.387L801.482,254.182L800.614,257.864L799.351,259.19L798.845,260.936L799.339,263.338L801.298,264.617L805.216,266.062L808.165,267.03L813.021,267.972L815.174,270.061L818.364,270.463L819.232,271.663L818.793,276.353L820.167,277.456L819.688,279.386L820.918,280.176L820.696,281.56L818.002,281.466L818.091,283.081L820.372,284.624L820.493,286.036L822.267,287.821L822.758,290.345L820.205,291.727L821.778,293.221L827.579,291.535L831.186,297.547Z"
   class="state-svg" />
    <path
   id="US"
   d="M806.332,251.796C806.332,254.558 804.094,256.796 801.332,256.796C798.571,256.796 796.332,254.558 796.332,251.796C796.332,249.035 798.571,246.796 801.332,246.796C804.094,246.796 806.332,249.035 806.332,251.796Z"
   class="state-svg" />
    <path
   id="PR"
   d="M556.488,530.585L557.346,528.443L559.059,528.872L560.772,530.157L568.056,531.013L575.34,530.585L578.34,530.585L580.91,531.442L582.624,530.157L584.766,530.157L589.907,530.585L595.048,531.87L596.763,533.584L599.761,533.584L600.189,536.156L599.761,537.869L596.334,538.297L594.191,539.154L593.334,541.296L592.049,543.438L589.479,544.723L584.336,544.723L580.053,544.723L577.911,543.867L573.627,543.867L571.484,543.01L568.056,543.867L563.772,543.867L561.63,542.153L559.059,543.01L555.631,543.438L555.203,541.296L556.06,540.011L556.916,537.869L556.06,535.298L552.633,532.727L553.918,531.87L556.488,530.585ZM603.2,542.159L601.341,542.779L605.058,544.018L610.014,542.779L611.253,540.92L608.156,541.54L603.2,542.159ZM611.873,537.823L610.324,536.894L612.492,535.345L613.112,536.894L611.873,537.823Z"
   class="state-svg" />
    <path
   id="VI"
   d="M645.381,524.068L643.922,525.163L642.098,526.256L642.463,527.715L644.286,528.444L646.84,528.079L647.933,529.904L649.756,529.904L650.85,528.81L654.862,528.079L656.685,527.715L658.145,526.62L657.415,525.163L655.228,525.163L650.121,524.068L645.381,524.068ZM659.833,525.469L659.549,526.462L660.402,526.959L662.396,526.711L663.82,527.456L664.958,527.207L665.244,525.964L666.667,524.972L666.952,523.979L665.812,523.483L664.104,523.979L662.11,523.236L661.257,523.979L660.971,524.972L659.833,525.469ZM654.528,545.889L657.135,545.237L658.764,545.563L661.044,544.26L662.023,544.586L662.673,545.563L663.65,547.193L665.604,546.215L666.582,546.866L670.853,546.278L671.338,548.707L669.515,549.471L666.258,549.471L660.719,551.101L658.439,550.777L654.528,551.427L653.227,550.777L652.249,551.427L649.641,551.755C649.641,551.755 648.104,551.257 649.316,550.449C651.27,549.147 650.294,546.866 650.294,546.866L654.528,545.889Z"
   class="state-svg" />
    <path
   id="MP"
   d="M644.48,558.693L645.555,557.973L646.456,557.375L644.48,558.693ZM644.56,564.251L646.537,566.228L646.362,564.356L644.56,564.251ZM649.17,570.181L650.489,573.475L651.807,570.181L649.17,570.181ZM654.441,576.768L654.441,580.062L656.417,580.721L657.076,577.427L654.441,576.768ZM663.088,585.209L661.358,588.296L661.934,590.149L664.817,591.384L665.97,589.531L665.97,586.442L663.088,585.209Z"
   class="state-svg" />
    <path
   id="GU"
   d="M563.283,561.166C563.325,561.166 563.367,561.166 563.409,561.166C563.837,561.166 564.249,561.306 564.668,561.376C565.22,561.468 565.464,562.127 565.928,562.32C566.423,562.527 566.566,562.957 566.935,563.265C567.043,563.355 567.152,563.535 567.187,563.58C567.911,564.183 566.432,564.76 568.069,564.419C568.105,564.412 569.365,564.899 569.58,564.944C570.198,565.073 570.867,565.055 571.343,565.154C571.944,565.279 570.738,566.057 570.461,566.519C570.2,566.954 570.335,567.606 570.335,568.093C570.335,568.706 570.202,569.061 570.083,569.457C569.94,569.936 569.625,570.259 569.328,570.507C569.014,570.769 568.426,571.036 567.943,571.137C567.297,571.271 567.349,571.661 566.431,571.661C565.993,571.661 565.933,572.702 565.802,572.921C565.419,573.559 564.667,572.925 564.417,573.761C564.254,574.303 563.919,574.28 563.535,574.6C563.174,574.901 562.632,575.082 562.276,575.23C561.667,575.484 561.289,575.755 560.513,575.755C560.205,575.755 559.616,576.681 559.505,576.804C559.136,577.214 558.964,577.465 558.624,577.749C558.474,577.874 557.435,577.655 556.987,577.749C556.921,577.762 556.987,579.181 556.987,579.323C556.987,579.57 556.165,579.959 556.105,580.058C555.99,580.249 556.357,581.301 556.357,581.632C556.357,582.148 556.34,582.739 556.231,583.102C556.087,583.583 556.107,584.151 555.476,584.151C554.815,584.151 555.841,584.98 555.979,585.096C556.2,585.279 556.155,586.205 556.231,586.46C556.437,587.147 555.853,587.385 555.853,587.93C555.853,587.964 554.838,588.51 554.72,588.559C554.359,588.71 554.025,589.138 553.713,589.399C553.231,589.8 553.129,589.99 552.705,590.344C552.291,590.688 551.706,590.657 551.068,590.763C550.484,590.861 549.992,590.973 549.305,590.973C548.92,590.973 548.413,590.334 548.172,590.134C547.628,589.68 547.459,590.383 547.164,589.399C547.136,589.305 546.756,588.562 546.661,588.244C546.49,587.677 546.537,587.308 546.409,586.88C546.297,586.506 545.918,586.295 545.779,585.83C545.618,585.294 545.697,584.749 545.401,584.256C545.098,583.751 544.52,583.947 544.52,583.102C544.52,582.382 544.861,582.323 545.149,581.842C545.347,581.513 545.549,580.931 545.653,580.583C545.758,580.233 546.207,579.659 546.409,579.323C546.459,579.24 546.283,578.896 546.283,578.693L543.135,576.279C543.69,575.354 543.824,575.687 544.772,576.279C545.287,576.602 545.705,576.61 546.283,576.489C546.758,576.39 546.661,577.63 546.661,577.959C546.661,578.548 547.401,577.834 547.485,577.556C547.713,576.795 547.457,576.73 547.29,576.175C547.216,575.929 548.344,576.645 548.046,575.65C547.889,575.128 547.034,575.663 547.29,574.81C547.384,574.497 549.209,574.895 549.305,574.915C549.851,575.029 550.253,574.285 550.816,574.285C551.364,574.285 552.049,574.075 552.705,574.075C553.191,574.075 554.082,573.841 554.468,573.761C555.244,573.599 555.587,573.56 556.105,573.236C556.461,573.013 555.885,571.872 555.853,571.766C555.69,571.222 557.597,571.763 557.616,571.766C558.43,571.902 558.521,571.059 558.624,570.717C558.828,570.037 558.935,569.852 559.631,569.562C560.402,569.241 560.639,568.75 560.639,568.093C560.639,567.109 561.074,566.803 561.268,565.994C561.416,565.38 561.124,565.209 561.646,564.629C562.197,564.017 562.591,563.789 562.905,563.265C563.189,562.793 563.157,562.396 563.157,561.796C563.157,561.242 563.313,561.191 562.779,560.746"
   class="state-svg" />
    <rect
   id="rect8098"
   x="583.186"
   y="558.705"
   width="0.177"
   height="33.499"
   style="fill:rgb(255,0,0);stroke:rgb(169,169,169);stroke-width:1.57px;" />
    <path
   id="AS"
   d="M596.822,583.622C597.07,583.5 597.431,583.513 597.6,583.18C597.887,582.615 597.323,582.504 598.033,582.329C598.386,582.242 598.786,582.814 598.898,582.924C599.174,583.195 599.352,583.438 599.504,582.839C599.566,582.596 600.287,581.752 600.543,581.564C600.882,581.313 601.164,581.293 601.494,580.968C601.77,580.698 602.023,580.449 602.273,580.203C602.586,579.896 602.751,579.774 602.966,579.353C603.165,578.96 603.451,578.706 603.658,578.502C604.12,578.048 602.525,578.247 601.841,578.247C601.661,578.247 602.152,577.484 602.187,577.312C602.291,576.798 602.424,576.828 602.879,576.716C603.529,576.557 604.358,576.386 604.358,576.905C604.358,577.251 604.092,576.882 604.177,576.546C604.296,576.08 604.582,575.88 604.956,575.696C605.324,575.515 605.731,575.4 605.994,575.271C606.454,575.045 606.443,575.079 606.34,574.676C606.277,574.427 606.405,573.909 606.34,573.655C606.203,573.115 606.899,573.561 606.6,572.975C606.471,572.72 605.712,572.538 605.562,572.464C605.129,572.252 604.74,572.316 604.35,572.124C603.883,571.895 603.969,571.733 604.264,571.444C604.429,571.282 605.335,571.495 605.475,571.529C605.886,571.63 606.323,571.614 606.773,571.614C607.354,571.614 607.681,571.635 608.158,571.869C608.516,572.045 608.417,572.387 608.417,572.89C608.417,573.444 608.265,573.703 608.763,573.825C609.369,573.974 609.494,573.86 609.888,573.57C610.049,573.451 611.155,573.338 611.273,573.315C611.74,573.223 612.004,573.022 612.225,572.805C612.54,572.495 612.958,572.254 613.177,572.039C613.5,571.721 613.805,571.63 614.215,571.529C614.743,571.399 614.96,571.751 615.167,571.954C615.376,572.16 615.254,572.85 615.254,573.145C615.254,573.409 616.838,572.749 616.898,572.72C617.361,572.492 617.648,572.577 617.936,572.294C618.34,571.897 618.07,571.626 618.715,571.784C619.207,571.905 619.506,571.632 619.927,571.529C620.382,571.417 620.273,571.12 620.273,570.594C620.273,570.168 620.273,569.743 620.273,569.318C620.273,568.717 619.926,568.829 619.494,568.723C619.138,568.635 618.645,568.876 618.455,569.063C618.084,569.428 617.986,569.294 617.85,569.828C617.723,570.328 617.668,570.385 617.244,570.594C617.04,570.694 616.661,570.168 616.206,570.168C615.715,570.168 615.526,569.877 615.254,569.743C614.872,569.556 614.574,569.488 614.042,569.488C613.849,569.488 613.566,569.595 613.177,569.69C612.827,569.776 612.165,570.083 612.052,570.083C611.695,570.083 612.465,569.157 612.484,569.148C612.963,568.913 613.554,569.194 612.571,568.808C612.187,568.657 611.655,568.893 611.273,568.893C610.643,568.893 610.581,568.985 610.581,569.573C610.581,570.153 610.259,570.083 609.715,570.083C609.379,570.083 609.522,569.313 609.196,569.233C608.658,569.101 608.707,569.607 608.504,568.808C608.424,568.494 607.785,568.834 607.552,569.063C607.297,569.314 606.729,568.967 607.379,568.808C607.935,568.671 607.104,568.127 606.773,568.127C606.196,568.127 606.285,568.511 605.994,568.893C605.705,569.272 605.278,568.986 605.129,569.573C605.053,569.87 604.46,569.944 604.177,570.083C603.746,570.295 603.42,570.498 603.052,570.679C602.514,570.943 601.853,570.849 601.235,570.849C600.912,570.849 601.408,571.467 601.408,571.784C601.408,572.209 601.408,572.635 601.408,573.06C601.408,573.752 601.316,573.593 600.716,573.74C600.391,573.82 600.145,573.4 599.677,573.4C599.107,573.4 598.985,573.667 598.985,574.165C598.985,574.71 598.508,574.4 598.12,574.59C597.643,574.825 597.254,574.933 597.254,574.335C597.254,573.885 596.773,573.834 596.389,573.74C595.827,573.602 595.817,574.149 595.437,574.335C595.009,574.545 594.55,574.473 594.139,574.676C594.026,574.731 593.79,574.058 593.533,573.995C593.089,573.886 592.479,574.063 592.062,574.165C591.561,574.288 591.814,574.676 591.197,574.676C590.726,574.676 590.324,574.807 590.072,574.931C589.837,575.046 590.46,575.441 589.466,575.441C588.831,575.441 588.74,575.506 588.514,575.951C588.258,576.455 588.463,576.623 587.735,576.802C587.516,576.855 587.099,577.349 587.043,577.567C586.951,577.928 585.885,577.878 586.697,578.077C587.133,578.184 587.509,578.213 587.995,578.332C588.414,578.435 588.93,578.622 589.206,578.757C589.492,578.898 590.251,578.713 590.418,578.672C590.847,578.567 590.818,578.401 591.37,578.672C591.705,578.837 591.654,579.28 591.976,579.438C592.282,579.588 593.202,579.523 593.533,579.523C593.613,579.523 593.68,580.611 593.706,580.713C593.77,580.963 593.879,581.476 593.966,581.819C593.993,581.927 594.797,582.295 594.918,582.414C595.158,582.65 595.478,582.764 595.783,582.839C596.279,582.961 596.478,582.927 596.735,583.18C597.001,583.441 596.682,583.279 596.822,583.622Z"
   class="state-svg" />
    <path
   id="path62"
   d="M211,493L211,548L247,593M0,425L144,425L211,493L297,493L350,547L350,593"
   style="fill:none;stroke:rgb(169,169,169);stroke-width:2px;" />
    <path
   id="path64"
   d="M536.795,593L536.795,515.669L682.017,515.669L682.017,593M623.516,515.669L623.516,593M536.795,557.526L682.017,557.526"
   style="fill:none;stroke:rgb(169,169,169);stroke-width:2px;" />
</svg>
